/* Created with The GIMP */
#define blitzersmall_width 15
#define blitzersmall_height 9
static unsigned char blitzersmall_bits[] = {
   0x78, 0x7f, 0x7e, 0x7f, 0x6f, 0x7f, 0x1b, 0x38, 0x7d, 0x5f, 0x61, 0x77,
   0xdf, 0x5b, 0xef, 0x5e, 0x7e, 0x17 };
